<svg width="64" height="64" viewBox="0 0 64 64" fill="none" xmlns="http://www.w3.org/2000/svg">
  <rect width="64" height="64" rx="16" fill="#FF3621"/>
  <rect x="8" y="8" width="48" height="48" rx="8" fill="white"/>
  <rect x="16" y="16" width="8" height="8" rx="2" fill="#FF3621"/>
  <rect x="28" y="16" width="8" height="8" rx="2" fill="#FF3621"/>
  <rect x="40" y="16" width="8" height="8" rx="2" fill="#FF3621"/>
  <rect x="16" y="28" width="8" height="8" rx="2" fill="#FF3621"/>
  <rect x="28" y="28" width="8" height="8" rx="2" fill="#00BFFF"/>
  <rect x="40" y="28" width="8" height="8" rx="2" fill="#FF3621"/>
  <rect x="16" y="40" width="8" height="8" rx="2" fill="#FF3621"/>
  <rect x="28" y="40" width="8" height="8" rx="2" fill="#FF3621"/>
  <rect x="40" y="40" width="8" height="8" rx="2" fill="#00BFFF"/>
  <circle cx="44" cy="20" r="2" fill="white"/>
  <circle cx="20" cy="44" r="2" fill="white"/>
</svg>
